<svg xmlns="http://www.w3.org/2000/svg" xmlns:xlink="http://www.w3.org/1999/xlink" viewBox="0 0 450 100"><defs><linearGradient id="a" x1="334.69355" y1="41.67633" x2="444.64686" y2="41.67633" gradientUnits="userSpaceOnUse"><stop offset="0" stop-color="#20e2d7"/><stop offset="1" stop-color="#f9fea5"/></linearGradient></defs><title>1Wallpapre</title><path d="M13.03536,63.95435A13.32821,13.32821,0,0,1,7.501,59.45889a11.80647,11.80647,0,0,1-2.1479-6.439h4.965a9.42713,9.42713,0,0,0,3.01829,6.00383q2.68371,2.5831,7.84913,2.5831a11.02285,11.02285,0,0,0,7.54808-2.44895,7.90866,7.90866,0,0,0,2.78432-6.20506,7.3306,7.3306,0,0,0-1.54425-4.86515,9.46226,9.46226,0,0,0-3.82317-2.75,59.49543,59.49543,0,0,0-6.30644-1.97944,55.03144,55.03144,0,0,1-7.44669-2.48171,11.83035,11.83035,0,0,1-4.69513-3.7561,11.11876,11.11876,0,0,1-1.94668-6.9101,11.5022,11.5022,0,0,1,1.87961-6.47335A12.568,12.568,0,0,1,12.934,19.27578a18.21781,18.21781,0,0,1,7.84913-1.61132q6.50688,0,10.4993,3.18676A11.97319,11.97319,0,0,1,35.8777,29.07H30.77857a8.42339,8.42339,0,0,0-3.15244-5.13188,10.92339,10.92339,0,0,0-7.24547-2.24773,10.94018,10.94018,0,0,0-7.04425,2.24773,7.42912,7.42912,0,0,0-2.81707,6.138,7.08422,7.08422,0,0,0,1.54268,4.7622,9.81441,9.81441,0,0,0,3.85749,2.75156,56.63193,56.63193,0,0,0,6.27213,2.0122,56.75891,56.75891,0,0,1,7.37961,2.516A12.0208,12.0208,0,0,1,34.335,45.90853a11.00987,11.00987,0,0,1,1.94513,6.843,12.07394,12.07394,0,0,1-1.74391,6.23781A12.72586,12.72586,0,0,1,29.37,63.75313a17.27572,17.27572,0,0,1-8.18449,1.811A19.42222,19.42222,0,0,1,13.03536,63.95435Z" style="fill:#333"/><path d="M51.44025,32.42369V55.1662q0,3.35522,1.276,4.628,1.27282,1.27518,4.49391,1.276h4.29424v4.0244H56.4723q-4.965,0-7.37961-2.31481-2.41464-2.314-2.41464-7.61359V32.42369H41.57892V28.46637h5.09913V19.27578h4.7622v9.19059h10.0641v3.95732Z" style="fill:#333"/><path d="M75.961,63.31638a16.72551,16.72551,0,0,1-6.50767-6.57318,20.0837,20.0837,0,0,1-2.38188-9.96272,19.84943,19.84943,0,0,1,2.4162-9.96271A16.89973,16.89973,0,0,1,76.06081,30.243a20.01994,20.01994,0,0,1,18.68379,0,16.62043,16.62043,0,0,1,6.57474,6.57474,20.10032,20.10032,0,0,1,2.38188,9.96271,19.8949,19.8949,0,0,1-2.4162,9.9284,16.703,16.703,0,0,1-6.64025,6.6075,19.23705,19.23705,0,0,1-9.39181,2.3148A18.65938,18.65938,0,0,1,75.961,63.31638Zm15.9993-3.42074a12.53178,12.53178,0,0,0,4.99774-4.965,16.08745,16.08745,0,0,0,1.91236-8.15018,16.3527,16.3527,0,0,0-1.87805-8.15173,12.33814,12.33814,0,0,0-4.965-4.96342,14.5071,14.5071,0,0,0-13.41621,0,12.12032,12.12032,0,0,0-4.93066,4.96342,16.572,16.572,0,0,0-1.8453,8.15173,16.56573,16.56573,0,0,0,1.8453,8.15018,12.16072,12.16072,0,0,0,4.89634,4.965A13.849,13.849,0,0,0,85.253,61.53972,14.037,14.037,0,0,0,91.96028,59.89564Z" style="fill:#333"/><path d="M121.71272,29.67369a15.14931,15.14931,0,0,1,7.81637-1.87805V32.692H128.2547a11.84206,11.84206,0,0,0-8.18449,2.75q-3.0885,2.75156-3.08693,9.19215V65.0946h-4.69513V28.46637h4.69513v6.50611A11.4722,11.4722,0,0,1,121.71272,29.67369Z" style="fill:#333"/><path d="M169.57805,48.59146H139.18764a14.7405,14.7405,0,0,0,2.0122,7.11132,11.83894,11.83894,0,0,0,4.76376,4.46115,13.93475,13.93475,0,0,0,6.44059,1.50993,12.92447,12.92447,0,0,0,7.68066-2.215,10.391,10.391,0,0,0,4.12578-5.96952h4.965a15.50966,15.50966,0,0,1-5.7371,8.75384,17.537,17.537,0,0,1-11.03432,3.388,18.47692,18.47692,0,0,1-9.25923-2.3148,16.33137,16.33137,0,0,1-6.40627-6.57318,20.55875,20.55875,0,0,1-2.31481-9.96272,20.99367,20.99367,0,0,1,2.282-9.99547,15.84573,15.84573,0,0,1,6.372-6.57473,18.82626,18.82626,0,0,1,9.3263-2.28049,17.88984,17.88984,0,0,1,9.15627,2.28049,15.77319,15.77319,0,0,1,6.03815,6.138,17.51434,17.51434,0,0,1,2.11359,8.55417Q169.7122,47.31707,169.57805,48.59146Zm-6.27368-10.80035a11.08978,11.08978,0,0,0-4.66237-4.36132,14.21465,14.21465,0,0,0-6.439-1.47561,12.80008,12.80008,0,0,0-8.92386,3.35366q-3.68982,3.35523-4.09147,9.46045h25.7608A13.02648,13.02648,0,0,0,163.30437,37.79111Z" style="fill:#333"/><path d="M184.37,63.95435a13.32815,13.32815,0,0,1-5.53432-4.49546,11.80639,11.80639,0,0,1-2.1479-6.439h4.965a9.42713,9.42713,0,0,0,3.01829,6.00383q2.68371,2.5831,7.84913,2.5831a11.02285,11.02285,0,0,0,7.54808-2.44895,7.90866,7.90866,0,0,0,2.78432-6.20506,7.3306,7.3306,0,0,0-1.54425-4.86515,9.46226,9.46226,0,0,0-3.82317-2.75,59.49573,59.49573,0,0,0-6.30645-1.97944,55.03172,55.03172,0,0,1-7.44668-2.48171,11.83035,11.83035,0,0,1-4.69513-3.7561,11.11876,11.11876,0,0,1-1.94668-6.9101,11.5022,11.5022,0,0,1,1.87961-6.47335,12.568,12.568,0,0,1,5.29878-4.46115,18.21781,18.21781,0,0,1,7.84913-1.61132q6.50688,0,10.4993,3.18676a11.97319,11.97319,0,0,1,4.5953,8.21881h-5.09913a8.42339,8.42339,0,0,0-3.15244-5.13188,12.4777,12.4777,0,0,0-14.28972,0,7.42912,7.42912,0,0,0-2.81707,6.138,7.08422,7.08422,0,0,0,1.54268,4.7622,9.81441,9.81441,0,0,0,3.85749,2.75156,56.63053,56.63053,0,0,0,6.27213,2.0122,56.75891,56.75891,0,0,1,7.37961,2.516,12.02094,12.02094,0,0,1,4.76376,3.79042,11.00987,11.00987,0,0,1,1.94513,6.843,12.07394,12.07394,0,0,1-1.74391,6.23781,12.72586,12.72586,0,0,1-5.1662,4.76376,17.27572,17.27572,0,0,1-8.18449,1.811A19.42218,19.42218,0,0,1,184.37,63.95435Z" style="fill:#333"/><path d="M246.8589,28.46637,225.12405,82.33554h-4.89791l7.11133-17.44216-15.02753-36.427h5.1662l12.47718,31.26081,12.07631-31.26081Z" style="fill:#333"/><path d="M281.14112,31.85435q4.15776,4.05949,4.15854,11.77213V65.0946h-4.62805v-20.93q0-5.97108-2.98554-9.12508a10.69052,10.69052,0,0,0-8.15018-3.15244,11.048,11.048,0,0,0-8.45279,3.35366q-3.154,3.35522-3.154,9.86288V65.0946H253.234V28.46637h4.69512v6.23781a11.98893,11.98893,0,0,1,5.032-5.13188,15.40935,15.40935,0,0,1,7.44669-1.77666A14.72242,14.72242,0,0,1,281.14112,31.85435Z" style="fill:#333"/><path d="M295.83328,36.81777a16.25708,16.25708,0,0,1,6.30488-6.57474,18.10889,18.10889,0,0,1,9.19216-2.31324,17.88787,17.88787,0,0,1,11.16847,3.35366,15.19933,15.19933,0,0,1,5.67159,9.12352h-5.03361a10.3092,10.3092,0,0,0-4.05872-6.20506,12.9145,12.9145,0,0,0-7.74773-2.24773,13.21181,13.21181,0,0,0-6.64181,1.67683,11.75853,11.75853,0,0,0-4.66237,4.99774,17.65562,17.65562,0,0,0-1.71115,8.15173,17.86579,17.86579,0,0,0,1.71115,8.1845,11.704,11.704,0,0,0,4.66237,5.03049,13.1968,13.1968,0,0,0,6.64181,1.67839,12.90386,12.90386,0,0,0,7.74773-2.24773,10.33021,10.33021,0,0,0,4.05872-6.27213h5.03361a15.38343,15.38343,0,0,1-5.70435,9.05645,17.6795,17.6795,0,0,1-11.13571,3.42073,18.10975,18.10975,0,0,1-9.19216-2.3148,16.23356,16.23356,0,0,1-6.30488-6.57318,20.79931,20.79931,0,0,1-2.28205-9.96272A20.7993,20.7993,0,0,1,295.83328,36.81777Z" style="fill:#333"/><path d="M370.08014,41.37528a14.26105,14.26105,0,0,1-5.97107,5.63415,20.62139,20.62139,0,0,1-9.75838,2.11359H347.843V65.08957H334.69355v-47.296h19.65714a21.33,21.33,0,0,1,9.69286,2.01375,13.84064,13.84064,0,0,1,6.0054,5.56708,16.33147,16.33147,0,0,1,2.01219,8.1845A15.65006,15.65006,0,0,1,370.08014,41.37528Zm-11.43676-7.81637q0-5.16387-5.56552-5.16464H347.843V38.658h5.23483Q358.64181,38.658,358.64338,33.55891Zm37.23032-4.561a13.015,13.015,0,0,1,6.776-1.87961V41.13974h-3.68747q-4.29581,0-6.37664,1.67683-2.07771,1.67762-2.07771,5.83693V65.08957H377.35837V27.45524h13.14947v6.64025A17.10655,17.10655,0,0,1,395.8737,28.99793Zm18.88658,34.21359a17.3256,17.3256,0,0,1-7.01306-6.70889,19.992,19.992,0,0,1-2.54566-10.26376,19.63083,19.63083,0,0,1,2.5831-10.19669,17.50231,17.50231,0,0,1,7.04425-6.70889,22.86674,22.86674,0,0,1,20.1906,0,17.52194,17.52194,0,0,1,7.04425,6.70889,19.63083,19.63083,0,0,1,2.5831,10.19669,19.807,19.807,0,0,1-2.5831,10.22945,17.414,17.414,0,0,1-7.07544,6.7432,21.564,21.564,0,0,1-10.13274,2.34756A21.33158,21.33158,0,0,1,414.76028,63.21152Zm14.69372-11.103a8.47721,8.47721,0,0,0,1.84061-5.86969,8.34807,8.34807,0,0,0-1.84061-5.83693,5.91438,5.91438,0,0,0-4.52979-2.0122,5.8022,5.8022,0,0,0-4.49546,2.0122,8.44789,8.44789,0,0,0-1.81254,5.83693,8.75339,8.75339,0,0,0,1.747,5.90244,5.66265,5.66265,0,0,0,4.49235,2.01376A5.94052,5.94052,0,0,0,429.454,52.10856Z" style="fill:url(#a)"/></svg>