<svg id="wave" style="transform:rotate(0deg); transition: 0.3s" viewBox="0 0 1440 490" version="1.1" xmlns="http://www.w3.org/2000/svg"><defs><linearGradient id="sw-gradient-0" x1="0" x2="0" y1="1" y2="0"><stop stop-color="rgba(32, 226, 215, 1)" offset="0%"></stop><stop stop-color="rgba(249, 254, 165, 1)" offset="100%"></stop></linearGradient></defs><path style="transform:translate(0, 0px); opacity:1" fill="url(#sw-gradient-0)" d="M0,245L34.3,236.8C68.6,229,137,212,206,236.8C274.3,261,343,327,411,318.5C480,310,549,229,617,196C685.7,163,754,180,823,228.7C891.4,278,960,359,1029,334.8C1097.1,310,1166,180,1234,122.5C1302.9,65,1371,82,1440,138.8C1508.6,196,1577,294,1646,326.7C1714.3,359,1783,327,1851,269.5C1920,212,1989,131,2057,81.7C2125.7,33,2194,16,2263,16.3C2331.4,16,2400,33,2469,81.7C2537.1,131,2606,212,2674,261.3C2742.9,310,2811,327,2880,318.5C2948.6,310,3017,278,3086,245C3154.3,212,3223,180,3291,179.7C3360,180,3429,212,3497,212.3C3565.7,212,3634,180,3703,212.3C3771.4,245,3840,343,3909,318.5C3977.1,294,4046,147,4114,73.5C4182.9,0,4251,0,4320,73.5C4388.6,147,4457,294,4526,294C4594.3,294,4663,147,4731,114.3C4800,82,4869,163,4903,204.2L4937.1,245L4937.1,490L4902.9,490C4868.6,490,4800,490,4731,490C4662.9,490,4594,490,4526,490C4457.1,490,4389,490,4320,490C4251.4,490,4183,490,4114,490C4045.7,490,3977,490,3909,490C3840,490,3771,490,3703,490C3634.3,490,3566,490,3497,490C3428.6,490,3360,490,3291,490C3222.9,490,3154,490,3086,490C3017.1,490,2949,490,2880,490C2811.4,490,2743,490,2674,490C2605.7,490,2537,490,2469,490C2400,490,2331,490,2263,490C2194.3,490,2126,490,2057,490C1988.6,490,1920,490,1851,490C1782.9,490,1714,490,1646,490C1577.1,490,1509,490,1440,490C1371.4,490,1303,490,1234,490C1165.7,490,1097,490,1029,490C960,490,891,490,823,490C754.3,490,686,490,617,490C548.6,490,480,490,411,490C342.9,490,274,490,206,490C137.1,490,69,490,34,490L0,490Z"></path></svg>